<svg width="310" height="150" viewBox="0 0 620 300" fill="none" xmlns="http://www.w3.org/2000/svg">
	<rect width="620" height="300" fill="#593FE1" />
	<path d="M226.455 78.3444C227.325 65.7622 237.785 56 250.398 56H371.483C384.144 56 394.628 65.8356 395.434 78.4712L404.371 218.471C405.253 232.299 394.276 244 380.419 244H240.717C226.81 244 215.815 232.218 216.774 218.344L226.455 78.3444Z" fill="#F1EEFF" />
	<path d="M348.548 89.5C354.321 89.5 359.09 94.2108 358.14 99.9044C357.522 103.608 356.575 107.239 355.308 110.739C352.871 117.473 349.298 123.591 344.795 128.744C340.291 133.898 334.944 137.986 329.06 140.775C323.176 143.564 316.869 145 310.5 145C304.131 145 297.824 143.564 291.94 140.775C286.056 137.986 280.709 133.898 276.205 128.744C271.702 123.591 268.129 117.472 265.692 110.739C264.425 107.239 263.478 103.608 262.86 99.9044C261.91 94.2108 266.679 89.5 272.452 89.5V89.5C278.224 89.5 282.747 94.278 284.414 99.8044C284.595 100.404 284.791 100.998 285.004 101.585C286.391 105.416 288.424 108.898 290.986 111.83C293.549 114.763 296.591 117.089 299.939 118.676C303.287 120.263 306.876 121.08 310.5 121.08C314.124 121.08 317.713 120.263 321.061 118.676C324.409 117.089 327.451 114.763 330.014 111.83C332.576 108.898 334.609 105.416 335.996 101.585C336.209 100.998 336.405 100.404 336.586 99.8044C338.253 94.278 342.776 89.5 348.548 89.5V89.5Z" fill="#7D65FC" />
</svg>