<svg width="512" height="512" viewBox="0 0 350 350" fill="none" xmlns="http://www.w3.org/2000/svg">
	<rect width="350" height="350" fill="#593FE1" />
	<path d="M91.4549 103.344C92.325 90.7622 102.785 81 115.398 81H236.483C249.144 81 259.628 90.8356 260.434 103.471L269.371 243.471C270.253 257.299 259.276 269 245.419 269H105.717C91.8103 269 80.8147 257.218 81.7741 243.344L91.4549 103.344Z" fill="#F1EEFF" />
	<path d="M213.548 114.5C219.321 114.5 224.09 119.211 223.14 124.904C222.522 128.608 221.575 132.239 220.308 135.739C217.871 142.473 214.298 148.591 209.795 153.744C205.291 158.898 199.944 162.986 194.06 165.775C188.176 168.564 181.869 170 175.5 170C169.131 170 162.824 168.564 156.94 165.775C151.056 162.986 145.709 158.898 141.205 153.744C136.702 148.591 133.129 142.472 130.692 135.739C129.425 132.239 128.478 128.608 127.86 124.904C126.91 119.211 131.679 114.5 137.452 114.5V114.5C143.224 114.5 147.747 119.278 149.414 124.804C149.595 125.404 149.791 125.998 150.004 126.585C151.391 130.416 153.424 133.898 155.986 136.83C158.549 139.763 161.591 142.089 164.939 143.676C168.287 145.263 171.876 146.08 175.5 146.08C179.124 146.08 182.713 145.263 186.061 143.676C189.409 142.089 192.451 139.763 195.014 136.83C197.576 133.898 199.609 130.416 200.996 126.585C201.209 125.998 201.405 125.404 201.586 124.804C203.253 119.278 207.776 114.5 213.548 114.5V114.5Z" fill="#7D65FC" />
</svg>