<svg width="512" height="512" viewBox="0 0 190 190" fill="none" xmlns="http://www.w3.org/2000/svg">
    <g clip-path="url(#clip0)">
    <path d="M11.4549 23.3444C12.325 10.7622 22.7854 1 35.3977 1H156.483C169.144 1 179.628 10.8356 180.434 23.4712L189.37 163.471C190.253 177.299 179.276 189 165.419 189H25.7169C11.8103 189 0.814721 177.218 1.77406 163.344L11.4549 23.3444Z" fill="url(#paint0_linear)"/>
    <path d="M133.548 47.5C139.321 47.5 144.09 52.2108 143.14 57.9044C142.522 61.608 141.575 65.2388 140.308 68.7389C137.871 75.4725 134.298 81.5908 129.795 86.7444C125.291 91.8981 119.944 95.9862 114.06 98.7753C108.176 101.564 101.869 103 95.5 103C89.1309 103 82.8241 101.564 76.9399 98.7753C71.0556 95.9862 65.709 91.8981 61.2053 86.7444C56.7017 81.5908 53.1292 75.4725 50.6918 68.7389C49.4249 65.2388 48.4775 61.608 47.8599 57.9044C46.9103 52.2108 51.6794 47.5 57.4517 47.5C63.224 47.5 67.7468 52.278 69.4138 57.8044C69.5947 58.4038 69.7914 58.9976 70.004 59.585C71.3909 63.4164 73.4237 66.8977 75.9862 69.8302C78.5488 72.7626 81.5911 75.0888 84.9392 76.6758C88.2874 78.2628 91.876 79.0796 95.5 79.0796C99.124 79.0796 102.713 78.2628 106.061 76.6758C109.409 75.0888 112.451 72.7626 115.014 69.8302C117.576 66.8977 119.609 63.4164 120.996 59.585C121.209 58.9977 121.405 58.4038 121.586 57.8044C123.253 52.278 127.776 47.5 133.548 47.5Z" fill="url(#paint1_linear)"/>
    </g>
    <defs>
    <linearGradient id="paint0_linear" x1="51" y1="-35.5" x2="121.5" y2="177.5" gradientUnits="userSpaceOnUse">
    <stop stop-color="#3B00E4"/>
    <stop offset="1" stop-color="#6903BA"/>
    </linearGradient>
    <linearGradient id="paint1_linear" x1="95.5" y1="-8" x2="95.5" y2="103" gradientUnits="userSpaceOnUse">
    <stop stop-color="#6F6CFF"/>
    <stop offset="1" stop-color="#9B6CFF"/>
    </linearGradient>
    <clipPath id="clip0">
    <rect width="190" height="190" fill="white"/>
    </clipPath>
    </defs>
    </svg>
    