<svg width="72" height="72" viewBox="0 0 240 240" fill="none" xmlns="http://www.w3.org/2000/svg">
	<path d="M36.4549 48.3444C37.325 35.7622 47.7854 26 60.3977 26H181.483C194.144 26 204.628 35.8356 205.434 48.4712L214.371 188.471C215.253 202.299 204.276 214 190.419 214H50.7169C36.8103 214 25.8147 202.218 26.7741 188.344L36.4549 48.3444Z" fill="#593FE1" />
	<path d="M158.548 59.5C164.321 59.5 169.09 64.2108 168.14 69.9044C167.522 73.608 166.575 77.2388 165.308 80.7389C162.871 87.4725 159.298 93.5908 154.795 98.7444C150.291 103.898 144.944 107.986 139.06 110.775C133.176 113.564 126.869 115 120.5 115C114.131 115 107.824 113.564 101.94 110.775C96.0556 107.986 90.709 103.898 86.2053 98.7444C81.7017 93.5908 78.1292 87.4725 75.6918 80.7389C74.4249 77.2388 73.4775 73.608 72.8599 69.9044C71.9103 64.2108 76.6794 59.5 82.4517 59.5V59.5C88.224 59.5 92.7468 64.278 94.4138 69.8044C94.5947 70.4038 94.7914 70.9976 95.004 71.585C96.3909 75.4164 98.4237 78.8977 100.986 81.8302C103.549 84.7626 106.591 87.0887 109.939 88.6758C113.287 90.2628 116.876 91.0796 120.5 91.0796C124.124 91.0796 127.713 90.2628 131.061 88.6758C134.409 87.0888 137.451 84.7626 140.014 81.8302C142.576 78.8977 144.609 75.4164 145.996 71.585C146.209 70.9976 146.405 70.4038 146.586 69.8044C148.253 64.278 152.776 59.5 158.548 59.5V59.5Z" fill="#826AFF" />
</svg>