<svg width="1600" height="900" viewBox="0 0 1600 900" fill="none" xmlns="http://www.w3.org/2000/svg">
	<rect width="1600" height="900" fill="#6247F1" />
	<path d="M739.141 187.675C741.973 144.101 783.57 113.727 825.937 124.297L1164.85 208.846C1204.34 218.699 1227.13 260.04 1214.38 298.694L1128.81 558.091C1120.02 584.743 1096.16 603.567 1068.19 605.916L790.982 629.198C748.342 632.78 712.496 597.604 715.271 554.904L739.141 187.675Z" fill="#7D65FC" />
	<path d="M912.141 362.675C914.973 319.101 956.57 288.727 998.937 299.297L1337.85 383.846C1377.34 393.699 1400.13 435.04 1387.38 473.694L1301.81 733.091C1293.02 759.743 1269.16 778.567 1241.19 780.916L963.982 804.198C921.342 807.78 885.496 772.604 888.271 729.904L912.141 362.675Z" fill="#A391FF" />
</svg>