<svg width="1600" height="900" viewBox="0 0 1600 900" fill="none" xmlns="http://www.w3.org/2000/svg">
	<g clip-path="url(#clip0_23:2)">
		<rect width="1600" height="900" fill="#6247F1" />
		<path d="M908.141 187.675C910.973 144.101 952.57 113.727 994.937 124.297L1333.85 208.846C1373.34 218.699 1396.13 260.04 1383.38 298.694L1297.81 558.091C1289.02 584.743 1265.16 603.567 1237.19 605.916L959.982 629.198C917.342 632.78 881.496 597.604 884.271 554.904L908.141 187.675Z" fill="#7D65FC" />
		<path d="M1081.14 362.675C1083.97 319.101 1125.57 288.727 1167.94 299.297L1506.85 383.846C1546.34 393.699 1569.13 435.04 1556.38 473.694L1470.81 733.091C1462.02 759.743 1438.16 778.567 1410.19 780.916L1132.98 804.198C1090.34 807.78 1054.5 772.604 1057.27 729.904L1081.14 362.675Z" fill="#A391FF" />
	</g>
	<defs>
		<clipPath id="clip0_23:2">
			<rect width="1600" height="900" fill="white" />
		</clipPath>
	</defs>
</svg>