<svg viewBox="0 0 350 350" fill="none" xmlns="http://www.w3.org/2000/svg">
	<path d="M63.0532 76.1536C64.0737 61.3956 78.073 51.0656 92.4754 54.443L224.485 85.3995C238.379 88.6576 246.377 103.247 241.652 116.713L209.176 209.252C206.029 218.217 197.89 224.482 188.419 225.23L79.7521 233.809C65.135 234.963 52.9089 222.855 53.9204 208.228L63.0532 76.1536Z" fill="#7D65FC" />
	<path d="M128.053 138.154C129.074 123.396 143.073 113.066 157.475 116.443L289.485 147.399C303.379 150.658 311.377 165.247 306.652 178.713L274.176 271.252C271.029 280.217 262.89 286.482 253.419 287.23L144.752 295.809C130.135 296.963 117.909 284.855 118.92 270.228L128.053 138.154Z" fill="#6247F1" />
</svg>