<svg width="48" height="48" viewBox="0 0 190 190" fill="none" xmlns="http://www.w3.org/2000/svg">
	<g clip-path="url(#clip0_101:17)">
		<path d="M11.4549 23.3444C12.325 10.7622 22.7854 1 35.3977 1H156.483C169.144 1 179.628 10.8356 180.434 23.4712L189.371 163.471C190.253 177.299 179.276 189 165.419 189H25.7169C11.8103 189 0.814721 177.218 1.77406 163.344L11.4549 23.3444Z" fill="#F1EEFF" />
		<path d="M133.548 34.5C139.321 34.5 144.09 39.2108 143.14 44.9044C142.522 48.608 141.575 52.2388 140.308 55.7389C137.871 62.4725 134.298 68.5908 129.795 73.7444C125.291 78.8981 119.944 82.9862 114.06 85.7753C108.176 88.5645 101.869 90 95.5 90C89.1309 90 82.8241 88.5644 76.9399 85.7753C71.0556 82.9862 65.709 78.8981 61.2053 73.7444C56.7017 68.5908 53.1292 62.4725 50.6918 55.7389C49.4249 52.2388 48.4775 48.608 47.8599 44.9044C46.9103 39.2108 51.6794 34.5 57.4517 34.5V34.5C63.224 34.5 67.7468 39.278 69.4138 44.8044C69.5947 45.4038 69.7914 45.9976 70.004 46.585C71.3909 50.4164 73.4237 53.8977 75.9862 56.8302C78.5488 59.7626 81.5911 62.0887 84.9392 63.6758C88.2874 65.2628 91.876 66.0796 95.5 66.0796C99.124 66.0796 102.713 65.2628 106.061 63.6758C109.409 62.0888 112.451 59.7626 115.014 56.8302C117.576 53.8977 119.609 50.4164 120.996 46.585C121.209 45.9976 121.405 45.4038 121.586 44.8044C123.253 39.278 127.776 34.5 133.548 34.5V34.5Z" fill="#7D65FC" />
	</g>
	<defs>
		<clipPath id="clip0_101:17">
			<rect width="190" height="190" fill="white" />
		</clipPath>
	</defs>
</svg>